<?xml version="1.0" encoding="UTF-8"?>
<svg version="1.1" xmlns="http://www.w3.org/2000/svg" width="512" height="512">
<path d="M0 0 C0.83128418 0.19867676 1.66256836 0.39735352 2.51904297 0.60205078 C50.83484534 12.56229483 92.89395989 41.50638692 119.28662109 84.07519531 C144.36002634 125.96879543 153.71626533 177.22816259 142 225 C141.79101074 225.85609863 141.58202148 226.71219727 141.36669922 227.59423828 C129.60544626 273.89040628 99.67166785 315.27592324 58.87646484 340.30273438 C56.64068561 341.62551687 54.38914516 342.91391835 52.125 344.1875 C51.36316406 344.62143066 50.60132813 345.05536133 49.81640625 345.50244141 C46.2267916 347.48205305 42.87597614 349.14871217 38.89453125 350.1640625 C28.49801876 353.02103178 24.23089466 359.24299157 19.04421997 368.27670288 C16.9298876 372.04658694 14.87759559 375.84831146 12.87095642 379.67655945 C10.26945707 384.61548169 7.35294315 389.27905423 4.25219727 393.91699219 C2.82826019 395.88061685 2.82826019 395.88061685 3 398 C3.81863525 398.09498779 4.63727051 398.18997559 5.48071289 398.2878418 C22.86972438 400.33639695 40.00715726 402.65130082 57 407 C58.29188232 407.32822754 58.29188232 407.32822754 59.60986328 407.66308594 C79.09417473 412.74146331 103.13947597 420.7085911 114 439 C114.61875 440.03125 115.2375 441.0625 115.875 442.125 C118.30552986 448.52344308 118.13013778 456.4357193 116.0859375 462.8828125 C108.00856242 479.92346832 90.87382071 487.94744335 73.92626953 494.03466797 C43.43401377 504.52089545 10.61536319 509.03083757 -21.56640625 509.23828125 C-22.82736618 509.24802979 -24.08832611 509.25777832 -25.38749695 509.26782227 C-29.44586983 509.2927496 -33.50406501 509.30625027 -37.5625 509.3125 C-38.2538353 509.31379787 -38.94517059 509.31509575 -39.65745544 509.31643295 C-61.99684164 509.34820712 -83.91548809 508.60767643 -106 505 C-107.19254395 504.81276367 -108.38508789 504.62552734 -109.61376953 504.43261719 C-136.03511811 500.18259334 -171.92512671 493.47278701 -189.6328125 471.0078125 C-195.05694429 463.04208753 -196.25704493 455.61912645 -195 446 C-190.96021913 433.34775013 -181.19045984 425.73009644 -169.83203125 419.76953125 C-158.59845655 414.09851285 -147.17958347 410.09445732 -135 407 C-134.13487793 406.77860352 -133.26975586 406.55720703 -132.37841797 406.32910156 C-115.45801029 402.10442782 -98.29424053 400.00668336 -81 398 C-82.5847924 393.59270762 -84.84267908 389.68523241 -87.24609375 385.6875 C-87.65787369 384.99615967 -88.06965363 384.30481934 -88.49391174 383.5925293 C-89.80507782 381.39299175 -91.12120686 379.19647232 -92.4375 377 C-93.31868798 375.52363358 -94.1995507 374.04707297 -95.08007812 372.5703125 C-97.38246107 368.71098056 -99.68995245 364.85474933 -102 361 C-102.49918945 360.06905518 -102.99837891 359.13811035 -103.51269531 358.17895508 C-105.22245743 355.67409183 -106.39598062 354.96161822 -109.17578125 353.82421875 C-109.99675293 353.47560791 -110.81772461 353.12699707 -111.66357422 352.76782227 C-112.53771973 352.41131592 -113.41186523 352.05480957 -114.3125 351.6875 C-158.38265503 332.74561868 -192.99647443 296.51296382 -211.23388672 252.23632812 C-225.21615859 216.98353412 -229.49815292 176.0246007 -220 139 C-219.68651611 137.74147217 -219.68651611 137.74147217 -219.36669922 136.45751953 C-207.25457335 89.12496472 -176.77969308 47.56661102 -134.7734375 22.42578125 C-95.11218474 -0.59328157 -45.20081617 -10.88222115 0 0 Z M-158.54296875 71.30078125 C-187.9671814 103.62531375 -203.76694044 146.05903922 -201.8125 189.8125 C-199.8551922 223.00942978 -188.44154395 254.66785846 -168 281 C-167.32453125 281.88042969 -166.6490625 282.76085937 -165.953125 283.66796875 C-148.7914456 305.37060346 -127.09259332 320.91163457 -101.96484375 332.24609375 C-100.99780518 332.6954126 -100.99780518 332.6954126 -100.01123047 333.15380859 C-98.00337691 334.04954378 -98.00337691 334.04954378 -95.82080078 334.60009766 C-87.24116232 337.32618161 -84.07739833 345.11901152 -80 352.5 C-79.17710607 353.94478906 -78.35137825 355.38796742 -77.52294922 356.82958984 C-75.82910007 359.77960705 -74.14548536 362.73511594 -72.46777344 365.69433594 C-68.82445724 372.08806513 -64.97326058 378.35340013 -61.125 384.625 C-57.06572737 391.26097107 -53.03403649 397.90922066 -49.12109375 404.6328125 C-48.5182959 405.66712402 -47.91549805 406.70143555 -47.29443359 407.76708984 C-46.16699836 409.70887215 -45.04588656 411.65434429 -43.93212891 413.60400391 C-43.44019043 414.45140137 -42.94825195 415.29879883 -42.44140625 416.171875 C-42.01545166 416.9153418 -41.58949707 417.65880859 -41.15063477 418.42480469 C-40.77092529 418.94461914 -40.39121582 419.46443359 -40 420 C-39.34 420 -38.68 420 -38 420 C-36.36396101 417.67304036 -36.36396101 417.67304036 -34.68359375 414.640625 C-34.19142616 413.78966248 -34.19142616 413.78966248 -33.6893158 412.92150879 C-32.97526803 411.68560356 -32.26449923 410.44779959 -31.55657959 409.20837402 C-29.64855967 405.86936517 -27.71551487 402.54487738 -25.78515625 399.21875 C-25.3878833 398.53286804 -24.99061035 397.84698608 -24.58129883 397.14031982 C-19.92667072 389.1195917 -15.10874015 381.1996466 -10.25561523 373.29785156 C-7.07300793 368.10813701 -3.92281633 362.91175598 -0.92446899 357.61334229 C0.07112365 355.85429857 1.07604541 354.10090696 2.08349609 352.34863281 C3.32318764 350.18256794 4.5436845 348.00535475 5.74072266 345.81542969 C9.62311309 339.08744259 12.6928377 336.40416609 20 334 C21.62205979 333.30128691 23.23529833 332.58179604 24.83984375 331.84375 C25.66613281 331.46742432 26.49242187 331.09109863 27.34375 330.70336914 C67.35025695 312.14236832 98.30610869 279.5843417 113.83984375 238.171875 C128.51574574 197.45298788 127.06696125 152.95874798 108.87011719 113.55322266 C90.39224854 75.19535013 57.8376667 43.93525958 17.63476562 29.12890625 C-45.35209043 7.17204237 -112.21360115 23.62419456 -158.54296875 71.30078125 Z M-169 447 C-171.10670378 449.26017227 -171.92198272 450.47094531 -172.375 453.54296875 C-171.77909431 457.44739247 -169.74336035 458.71651892 -166.75390625 461.11328125 C-125.61126935 489.30036441 -62.73254439 488.86626018 -14.875 486.25 C-14.09541931 486.20743073 -13.31583862 486.16486145 -12.51263428 486.1210022 C43.79972237 482.97618364 43.79972237 482.97618364 92.75 457.75390625 C94.30343536 455.86913334 94.30343536 455.86913334 94.4375 452.4375 C90.65359075 443.38902137 80.5745382 439.62409675 72 436 C45.4449776 425.43380289 16.35942856 421.59995374 -12 420 C-12.48879639 420.82201904 -12.97759277 421.64403809 -13.48120117 422.4909668 C-15.30952599 425.56121335 -17.14758379 428.62553726 -18.98852539 431.68823242 C-19.78152705 433.01054775 -20.57193717 434.33442104 -21.35961914 435.65991211 C-22.49715988 437.57308151 -23.64413344 439.48031552 -24.79296875 441.38671875 C-25.13901657 441.97337814 -25.48506439 442.56003754 -25.84159851 443.16447449 C-31.38979206 452.30666352 -31.38979206 452.30666352 -36.5 453.6640625 C-37.325 453.65117187 -38.15 453.63828125 -39 453.625 C-39.825 453.63789063 -40.65 453.65078125 -41.5 453.6640625 C-46.64075596 452.2985492 -49.49164596 447.5570047 -52.08145142 443.16447449 C-52.41808807 442.57781509 -52.75472473 441.9911557 -53.1015625 441.38671875 C-53.84619044 440.12685634 -54.59098689 438.86709352 -55.3359375 437.60742188 C-56.4893173 435.63644701 -57.63898148 433.66340607 -58.78515625 431.68823242 C-59.90220139 429.76961272 -61.03232686 427.85919815 -62.1640625 425.94921875 C-62.50474762 425.3524382 -62.84543274 424.75565765 -63.19644165 424.14079285 C-64.25236136 422.30723723 -64.25236136 422.30723723 -66 420 C-97.59512483 420 -144.16821736 425.63198272 -169 447 Z " fill="#000000" transform="translate(295,3)"/>
<path d="M0 0 C0.70476471 0.00248749 1.40952942 0.00497498 2.13565063 0.00753784 C12.76263853 0.06548708 22.95884914 0.41042954 33.25 3.3125 C34.04841309 3.53292969 34.84682617 3.75335938 35.66943359 3.98046875 C53.30867018 9.0041127 69.97004659 16.67077845 84.25 28.3125 C85.05099121 28.94961914 85.05099121 28.94961914 85.86816406 29.59960938 C107.99736479 47.27803565 123.34464321 70.4790473 131.625 97.5625 C131.86379883 98.34141602 132.10259766 99.12033203 132.34863281 99.92285156 C135.78333173 111.84737066 136.63246612 123.69786117 136.5625 136.0625 C136.56001251 136.76726471 136.55752502 137.47202942 136.55496216 138.19815063 C136.49701292 148.82513853 136.15207046 159.02134914 133.25 169.3125 C133.02957031 170.11091309 132.80914062 170.90932617 132.58203125 171.73193359 C127.5583873 189.37117018 119.89172155 206.03254659 108.25 220.3125 C107.61288086 221.11349121 107.61288086 221.11349121 106.96289062 221.93066406 C89.28446435 244.05986479 66.0834527 259.40714321 39 267.6875 C38.22108398 267.92629883 37.44216797 268.16509766 36.63964844 268.41113281 C24.71512934 271.84583173 12.86463883 272.69496612 0.5 272.625 C-0.20476471 272.62251251 -0.90952942 272.62002502 -1.63565063 272.61746216 C-12.26263853 272.55951292 -22.45884914 272.21457046 -32.75 269.3125 C-33.54841309 269.09207031 -34.34682617 268.87164062 -35.16943359 268.64453125 C-52.80867018 263.6208873 -69.47004659 255.95422155 -83.75 244.3125 C-84.28399414 243.88775391 -84.81798828 243.46300781 -85.36816406 243.02539062 C-107.49736479 225.34696435 -122.84464321 202.1459527 -131.125 175.0625 C-131.36379883 174.28358398 -131.60259766 173.50466797 -131.84863281 172.70214844 C-135.28333173 160.77762934 -136.13246612 148.92713883 -136.0625 136.5625 C-136.06001251 135.85773529 -136.05752502 135.15297058 -136.05496216 134.42684937 C-135.99701292 123.79986147 -135.65207046 113.60365086 -132.75 103.3125 C-132.41935547 102.11488037 -132.41935547 102.11488037 -132.08203125 100.89306641 C-127.0583873 83.25382982 -119.39172155 66.59245341 -107.75 52.3125 C-107.32525391 51.77850586 -106.90050781 51.24451172 -106.46289062 50.69433594 C-88.78446435 28.56513521 -65.5834527 13.21785679 -38.5 4.9375 C-37.72108398 4.69870117 -36.94216797 4.45990234 -36.13964844 4.21386719 C-24.21512934 0.77916827 -12.36463883 -0.06996612 0 0 Z M-82.46875 57.96484375 C-103.00425877 79.54614232 -113.89321013 108.66177564 -113.75 138.3125 C-112.71228994 164.79312225 -103.80889735 188.98856638 -86.75 209.3125 C-86.11964844 210.08851563 -85.48929688 210.86453125 -84.83984375 211.6640625 C-65.58806555 234.33438075 -37.62338507 247.45937539 -8.21240234 249.96850586 C22.29281948 252.06700846 51.07005957 242.07804658 74.25 222.3125 C75.04792969 221.67183594 75.84585938 221.03117188 76.66796875 220.37109375 C98.71043247 201.90308361 111.32258182 173.42639042 113.90600586 145.18359375 C116.19457134 114.16478424 105.64742079 84.34125005 85.47094727 60.93359375 C65.01875536 37.91117824 36.7589932 24.55924252 6.125 22.5625 C-27.90768575 20.82007483 -58.42341123 34.50681929 -82.46875 57.96484375 Z " fill="#000000" transform="translate(255.75,49.6875)"/>
<path d="M0 0 C1.46386719 1.84765625 1.46386719 1.84765625 2.796875 4.0625 C3.28027344 4.85914063 3.76367188 5.65578125 4.26171875 6.4765625 C4.99841797 7.72566406 4.99841797 7.72566406 5.75 9 C6.25660156 9.83273437 6.76320313 10.66546875 7.28515625 11.5234375 C11 17.71150606 11 17.71150606 11 20 C7.96934913 21.01021696 5.4533747 21.30584427 2.27734375 21.578125 C-47.91590411 25.82064115 -47.91590411 25.82064115 -92 48 C-94.0779949 50.74613722 -94.0779949 50.74613722 -94.5625 53.3125 C-93.63081741 57.76387237 -90.61394316 59.624167 -87 62 C-44.45789608 87.29809577 14.07906024 87.87655931 62.125 85.25 C62.90458069 85.20743073 63.68416138 85.16486145 64.48736572 85.1210022 C97.93176995 83.23396512 139.50078164 79.67757107 167.4375 59 C170.30025347 56.20549045 170.30025347 56.20549045 170.4375 52.5 C167.00419517 44.1406491 156.86671536 40.38022926 149 37 C124.12133085 27.20215063 96.9791841 23.07595012 70.43017578 21.25488281 C68 21 68 21 65 20 C66.67774737 15.18477026 69.25565446 11.05333656 71.9375 6.75 C72.38029297 6.0178125 72.82308594 5.285625 73.27929688 4.53125 C73.71177734 3.83515625 74.14425781 3.1390625 74.58984375 2.421875 C75.17560181 1.47199707 75.17560181 1.47199707 75.77319336 0.50292969 C77 -1 77 -1 80 -2 C84.77310887 -1.70508829 89.51043431 -1.00463523 94.25 -0.375 C94.94606354 -0.28385925 95.64212708 -0.19271851 96.35928345 -0.09881592 C109.0724975 1.58095227 121.56788479 3.81845291 134 7 C134.86125488 7.21881836 135.72250977 7.43763672 136.60986328 7.66308594 C156.09417473 12.74146331 180.13947597 20.7085911 191 39 C191.61875 40.03125 192.2375 41.0625 192.875 42.125 C195.30552986 48.52344308 195.13013778 56.4357193 193.0859375 62.8828125 C185.00856242 79.92346832 167.87382071 87.94744335 150.92626953 94.03466797 C120.43401377 104.52089545 87.61536319 109.03083757 55.43359375 109.23828125 C54.17263382 109.24802979 52.91167389 109.25777832 51.61250305 109.26782227 C47.55413017 109.2927496 43.49593499 109.30625027 39.4375 109.3125 C38.7461647 109.31379787 38.05482941 109.31509575 37.34254456 109.31643295 C15.00315836 109.34820712 -6.91548809 108.60767643 -29 105 C-30.19254395 104.81276367 -31.38508789 104.62552734 -32.61376953 104.43261719 C-59.03511811 100.18259334 -94.92512671 93.47278701 -112.6328125 71.0078125 C-118.05694429 63.04208753 -119.25704493 55.61912645 -118 46 C-113.96021913 33.34775013 -104.19045984 25.73009644 -92.83203125 19.76953125 C-81.59845655 14.09851285 -70.17958347 10.09445732 -58 7 C-57.13487793 6.77860352 -56.26975586 6.55720703 -55.37841797 6.32910156 C-43.14331972 3.2742521 -30.79765504 1.24812011 -18.3125 -0.4375 C-17.62707123 -0.53339417 -16.94164246 -0.62928833 -16.23544312 -0.72808838 C-14.27993465 -0.99806716 -12.32162197 -1.24749061 -10.36328125 -1.49609375 C-8.66619019 -1.71543579 -8.66619019 -1.71543579 -6.93481445 -1.93920898 C-3.82205698 -2.00368587 -2.50005951 -1.80832715 0 0 Z " fill="#32CBCB" transform="translate(218,403)"/>
<path d="M0 0 C3.75907225 1.91952626 5.22937924 3.89411861 6.5 7.8125 C7.47012687 11.27214361 6.616777 13.74945793 5.17491341 16.98259354 C2.73711708 21.16845612 -0.86530467 24.39022469 -4.29516602 27.76513672 C-5.14095215 28.61311325 -5.98673828 29.46108978 -6.8581543 30.33476257 C-9.16694172 32.64545855 -11.48435449 34.94704482 -13.80614972 37.24465704 C-16.23711388 39.65425253 -18.65706119 42.07486452 -21.07835388 44.49417114 C-25.1412556 48.55063824 -29.21146648 52.5996448 -33.28686523 56.64355469 C-38.52055587 61.83686027 -43.74266429 67.04164981 -48.96099949 72.25037956 C-53.44918103 76.73026747 -57.94182139 81.2056757 -62.4356029 85.67994547 C-63.3999481 86.64024078 -64.3641384 87.60069167 -65.32817578 88.56129599 C-68.49316366 91.71501069 -71.66255041 94.86424536 -74.83422852 98.01123047 C-75.63583908 98.81015213 -76.43744965 99.60907379 -77.26335144 100.4322052 C-77.99379669 101.15549515 -78.72424194 101.8787851 -79.4768219 102.62399292 C-80.43056371 103.57132451 -80.43056371 103.57132451 -81.40357304 104.53779411 C-83.97627402 106.89419288 -85.84363175 107.20243028 -89.25 107.3125 C-90.37148437 107.36857422 -90.37148437 107.36857422 -91.515625 107.42578125 C-98.5189909 106.22551886 -103.79008426 99.51636744 -108.57421875 94.7265625 C-109.37986771 93.92519867 -110.18551666 93.12383484 -111.01557922 92.29818726 C-112.71157768 90.60791425 -114.40498523 88.91503803 -116.09594727 87.21972656 C-118.68053081 84.63197773 -121.27816609 82.05784997 -123.87695312 79.484375 C-125.52685211 77.83674867 -127.17596754 76.18833723 -128.82421875 74.5390625 C-129.98675423 73.39034164 -129.98675423 73.39034164 -131.17277527 72.21841431 C-139.56565068 63.75304962 -139.56565068 63.75304962 -140.25 57.83984375 C-139.58110608 52.74997905 -138.13362046 50.32706037 -134 47 C-130.93570224 45.46785112 -128.3834358 45.77061452 -125 46 C-120.21697113 48.28581634 -116.83527764 51.90720117 -113.16796875 55.63671875 C-112.53135818 56.27615921 -111.89474762 56.91559967 -111.23884583 57.57441711 C-109.21696667 59.60744499 -107.20217332 61.64733362 -105.1875 63.6875 C-103.81361367 65.07142297 -102.43926961 66.45489168 -101.06445312 67.83789062 C-97.70431133 71.22002237 -94.35050495 74.60832238 -91 78 C-88.06525023 76.67607767 -85.99962725 75.24540079 -83.73657227 72.96362305 C-83.11420685 72.34111664 -82.49184143 71.71861023 -81.85061646 71.07723999 C-81.17932709 70.39561798 -80.50803772 69.71399597 -79.81640625 69.01171875 C-79.10048309 68.29287506 -78.38455994 67.57403137 -77.64694214 66.83340454 C-76.09401693 65.27287174 -74.54340651 63.71003279 -72.99484253 62.14517212 C-70.54496369 59.66978108 -68.08890373 57.2006788 -65.63110352 54.7331543 C-60.41513645 49.49432054 -55.2070221 44.24772253 -50 39 C-43.96667766 32.91951849 -37.93020188 26.84224142 -31.88522339 20.77334595 C-29.46372175 18.33886233 -27.04831477 15.89843935 -24.63305664 13.45776367 C-23.15019862 11.96764131 -21.66705948 10.47779862 -20.18359375 8.98828125 C-19.1766597 7.96584824 -19.1766597 7.96584824 -18.14938354 6.92276001 C-17.52701813 6.3002536 -16.90465271 5.67774719 -16.26342773 5.03637695 C-15.72660873 4.49511673 -15.18978973 3.95385651 -14.63670349 3.39619446 C-10.17566941 -0.40930305 -5.65647103 -0.78786561 0 0 Z " fill="#33CBCB" transform="translate(318,136)"/>
</svg>
