<svg width="381" height="318" viewBox="0 0 381 318" fill="none" xmlns="http://www.w3.org/2000/svg">
<g id="mask" clip-path="url(#clip0_41_29)">
<g id="b_847D73">
<path id="Vector 1" d="M310.5 263.5L301.5 277.5L305 285L301.5 289L305 305L353.5 317.5L379 258.5L377 243.5L380.5 238L377 215.5L340 207.5L331.5 221.5L310.5 257V263.5Z" fill="#D9D9D9"/>
</g>
<g id="b_778B5F">
<path id="Vector 2" d="M277.5 195.5L228.5 260.5L238 283.5H243.5L245.5 290L288.5 300.5L305.5 272L302 260.5L310.5 262.5V258L331 222.5L315 220L309 202.5L277.5 195.5Z" fill="#D9D9D9"/>
</g>
<g id="b_465B3B">
<path id="Vector 3" d="M204.5 280.5L192.5 252.5L246 189L277 196L228.5 261L238 284H243.5L246 290.5L204.5 280.5Z" fill="#D9D9D9"/>
</g>
<g id="b_936878">
<path id="Vector 4" d="M187 178.5L126.5 236.5L138.5 259L144.5 260.5L149.5 266.5L189 276.5L197.5 266.5L192 253L234 204L224 202L218 184L187 178.5Z" fill="#D9D9D9"/>
</g>
<g id="b_601728">
<path id="Vector 5" d="M158.5 172.5L94 229L111 258L149.5 268L144.5 260H139.5L125.5 237L187 178.5L158.5 172.5Z" fill="#D9D9D9"/>
</g>
<g id="b_601728_2">
<path id="Vector 6" d="M16.5 202.5L0 181.5L40 154L126.5 164.5L128 166L107.5 184.5L112 192L77 221.5L30 214.5L24 202.5H16.5Z" fill="#D9D9D9"/>
</g>
<g id="b_266F8C">
<path id="Vector 7" d="M108 108L80 126.5L90.5 147L84.5 150.5L90.5 159.5L126.5 164.5L128.5 166.5L133 162.5L144 164.5L170 142L165.5 135.5L168 133L161 114L108 108Z" fill="#D9D9D9"/>
</g>
<g id="b_7C8951">
<path id="Vector 8" d="M183.5 96.5L134 91L108.5 107.5L161.5 114.5L168 133.5L165.5 136L169.5 141L189.5 125.5L187 116.5L202 103.5V101L185 99.5L183.5 96.5Z" fill="#D9D9D9"/>
</g>
<g id="b_16406E">
<path id="Vector 9" d="M180.5 59.5L160 74L167 91.5L163.5 94L183.5 96L185 99.5L203 101V104H209L228 88V83.5L230 81.5L224.5 64L180.5 59.5Z" fill="#D9D9D9"/>
</g>
<g id="b_67406D">
<path id="Vector 10" d="M241.5 52L197.5 48L180 60L225.5 65L230.5 82L229 84V87L239 79H241.5L244 76.5L241.5 71.5L253 61.5V58H241.5V52Z" fill="#D9D9D9"/>
</g>
<g id="b_739594">
<path id="Vector 11" d="M231.5 26L217 35.5L221 48L241 50L242.5 58H253V62.5H258L272.5 50L270 46L274.5 44L270 29L231.5 26Z" fill="#D9D9D9"/>
</g>
<g id="b_90764B">
<path id="Vector 15" d="M320.5 71L316 53.5L272.5 51L257.5 63L262 76.5L257.5 81L288 83.5L292.5 98.5H301L316 79.5V74.5L320.5 71Z" fill="#D9D9D9"/>
</g>
<g id="b_898B5C">
<path id="Vector 16" d="M329.5 65L326 43.5L284.5 40L272 50.5L316.5 53.5L320.5 71.5L316.5 74.5V80L329.5 65Z" fill="#D9D9D9"/>
</g>
<g id="b_836A7D">
<path id="Vector 17" d="M270 0L259 8L261 18.5L281 19.5L282.5 26H292V28.5L290 31H295.5L305 21.5L304 18.5L306 16.5L304 3L270 0Z" fill="#D9D9D9"/>
</g>
<g id="b_8E9592">
<path id="Vector 18" d="M325.5 158.5L322.5 162.5L297.5 160L294.5 145L297.5 141H293.5L288.5 122.5L304.5 103L360 108.5L363 127.5L359.5 132V137L347 158.5L345 158L343 161L325.5 158.5Z" fill="#D9D9D9"/>
</g>
<g id="b_81907A">
<path id="Vector 19" d="M370 91L317.5 87L304.5 103L360 108.5L363.5 127L359.5 132V137L369 121.5V115.5L378 101.5V96.5H371L370 91Z" fill="#D9D9D9"/>
</g>
<g id="b_396365">
<path id="Vector 12" d="M243.5 17.5L232.5 25.5L270 28.5L274.5 44L270 46.5L273 50L283 41L282.5 37L291.5 28.5V26.5H282.5C282.1 26.5 281.667 22.1667 281.5 20L243.5 17.5Z" fill="#D9D9D9"/>
</g>
<g id="b_8E9592_2">
<path id="Vector 13" d="M220.5 94.5L201 113L207 128.5L193.5 140.5L195 143L220.5 146L223.5 143H226L229 151.5L253 154L275.5 127L273 122.5L278 118L273 100L220.5 94.5Z" fill="#D9D9D9"/>
</g>
<g id="b_496F8C">
<path id="Vector 14" d="M275.5 127L294.5 106.5L287.5 84L239 79.5L221.5 94.5L273 100L278.5 118.5L273 123L275.5 127Z" fill="#D9D9D9"/>
</g>
</g>
<defs>
<clipPath id="clip0_41_29">
<rect width="380.5" height="317.5" fill="white"/>
</clipPath>
</defs>
</svg>
