<svg width="93" height="111" viewBox="0 0 93 111" fill="none" xmlns="http://www.w3.org/2000/svg">
<path d="M2 70L42.5 1.5L83.5 11L91.5 46L60.5 109.5L9 96.5L2 81.5H6L2 70Z" fill="#FD0909" fill-opacity="0.46"/>
<path d="M42.6133 1.0127L83.6133 10.5127L83.918 10.584L83.9873 10.8887L91.9873 45.8887L92.0264 46.0605L91.9492 46.2197L60.9492 109.72L60.7715 110.084L60.3779 109.984L8.87793 96.9844L8.64746 96.9268L8.54688 96.7119L1.54688 81.7119L1.21484 81H5.2959L1.52734 70.1641L1.45117 69.9453L1.56934 69.7451L42.0693 1.24512L42.2559 0.930664L42.6133 1.0127Z" stroke="#FD0909" stroke-opacity="0.46"/>
</svg>
